<?xml version="1.0" encoding="UTF-8"?>
<svg version="1.1" xmlns="http://www.w3.org/2000/svg" width="125" height="109">
<path d="M0 0 C-1.31145073 2.62290145 -2.43465654 2.74092252 -5.125 3.8125 C-14.12622141 7.73537779 -18.52443626 12.13898454 -23 21 C-25.19090686 27.57272059 -25.11877933 36.25735705 -23.12890625 42.9140625 C-20.45436901 48.15790928 -17.46676555 50.86888801 -12 53 C-5.67323053 53.8033993 -1.17675555 52.76324428 4 49 C6.39813886 46.74741292 8.7084872 44.44742993 10.9921875 42.08105469 C17.8417817 34.98751544 23.82084797 31.01606488 33.875 30.625 C41.19812747 30.77019212 45.42134158 32.75768833 50.875 37.5 C55.4797805 43.72816074 55.35035477 52.19860305 54.5 59.5625 C52.63634484 69.47429654 47.79566337 77.61162978 40 84 C37.625 85.5625 37.625 85.5625 35 87 C33.60227036 87.97645783 32.20666943 88.95596566 30.8125 89.9375 C22.39483315 95.58675221 13.97093057 98.12138942 3.875 98.25 C2.65554687 98.27578125 1.43609375 98.3015625 0.1796875 98.328125 C-3 98 -3 98 -4.9296875 96.484375 C-5.28289063 95.99453125 -5.63609375 95.5046875 -6 95 C-5.16855469 94.87882812 -4.33710937 94.75765625 -3.48046875 94.6328125 C-2.39378906 94.46523437 -1.30710938 94.29765625 -0.1875 94.125 C0.89144531 93.96257812 1.97039063 93.80015625 3.08203125 93.6328125 C6.17321793 93.14867662 6.17321793 93.14867662 9 91 C7.948125 91.495 6.89625 91.99 5.8125 92.5 C-2.87609249 95.70833185 -12.00842923 94.76175762 -20.4375 91.2578125 C-33.5285585 84.83201854 -40.52949895 75.37945721 -45.81640625 61.921875 C-47.09977389 57.93715309 -47.16957473 54.15458083 -47 50 C-46.34 50 -45.68 50 -45 50 C-45.04640625 48.97261719 -45.0928125 47.94523437 -45.140625 46.88671875 C-45.54121117 34.25143594 -43.54698532 24.75312924 -35 15 C-34.52175781 14.40574219 -34.04351562 13.81148437 -33.55078125 13.19921875 C-26.46112995 5.14523201 -10.85935993 -3.50301933 0 0 Z M42 47 C43 49 43 49 43 49 Z M-44 52 C-43 54 -43 54 -43 54 Z M-43 54 C-42.67 55.32 -42.34 56.64 -42 58 C-41.67 57.34 -41.34 56.68 -41 56 C-41.66 55.34 -42.32 54.68 -43 54 Z M-41 58 C-40.67 58.99 -40.34 59.98 -40 61 C-40 60.01 -40 59.02 -40 58 C-40.33 58 -40.66 58 -41 58 Z M-38 62 C-37.30735592 65.10961466 -37.30735592 65.10961466 -34.890625 66.38671875 C-34.01921875 66.81597656 -33.1478125 67.24523437 -32.25 67.6875 C-31.38890625 68.12449219 -30.5278125 68.56148438 -29.640625 69.01171875 C-26.88971748 70.04127438 -24.90929095 70.19360389 -22 70 C-22.55429687 69.72285156 -23.10859375 69.44570312 -23.6796875 69.16015625 C-28.453125 66.7734375 -33.2265625 64.38671875 -38 62 Z " fill="#D11B2F" transform="translate(59,6)"/>
<path d="M0 0 C4.70548833 2.83698881 7.72306766 5.70407891 9.37890625 10.97265625 C11.70510762 22.07697599 10.0896113 32.19823573 4.2734375 41.9296875 C0.51841857 47.29644971 -3.6921829 51.22875492 -9.4375 54.375 C-10.83522964 55.35145783 -12.23083057 56.33096566 -13.625 57.3125 C-22.04266685 62.96175221 -30.46656943 65.49638942 -40.5625 65.625 C-41.78195313 65.65078125 -43.00140625 65.6765625 -44.2578125 65.703125 C-47.4375 65.375 -47.4375 65.375 -49.3671875 63.859375 C-49.72039063 63.36953125 -50.07359375 62.8796875 -50.4375 62.375 C-49.68726563 62.30023438 -48.93703125 62.22546875 -48.1640625 62.1484375 C-38.16084852 60.86338986 -29.99867403 57.28700398 -23.4375 49.375 C-19.40977887 43.31971857 -18.30284341 38.84065922 -18.375 31.625 C-18.38402344 30.45453125 -18.39304688 29.2840625 -18.40234375 28.078125 C-18.41394531 27.18609375 -18.42554688 26.2940625 -18.4375 25.375 C-22.72306305 26.19216245 -24.44160377 28.22930896 -27.4375 31.375 C-30.29508846 33.78609026 -32.98523506 34.99409402 -36.4375 36.375 C-37.78025169 37.36231742 -39.11482273 38.36094743 -40.4375 39.375 C-41.9225 39.87 -41.9225 39.87 -43.4375 40.375 C-43.7675 41.035 -44.0975 41.695 -44.4375 42.375 C-46.36328125 43.0078125 -46.36328125 43.0078125 -48.75 43.5 C-49.52988281 43.66757813 -50.30976562 43.83515625 -51.11328125 44.0078125 C-53.4375 44.375 -53.4375 44.375 -57.4375 44.375 C-57.4375 43.385 -57.4375 42.395 -57.4375 41.375 C-56.65375 41.1275 -55.87 40.88 -55.0625 40.625 C-51.9519918 39.14380562 -51.82129532 38.40205226 -50.4375 35.375 C-49.633125 34.611875 -48.82875 33.84875 -48 33.0625 C-45.74231874 30.69468795 -44.90998045 29.51903285 -43.75 26.625 C-42.4375 23.375 -42.4375 23.375 -40.4375 22.375 C-40.1075 21.385 -39.7775 20.395 -39.4375 19.375 C-40.0975 19.045 -40.7575 18.715 -41.4375 18.375 C-31.12269302 5.90436519 -17.56965248 -7.88976847 0 0 Z M-2.4375 14.375 C-1.4375 16.375 -1.4375 16.375 -1.4375 16.375 Z " fill="#215C91" transform="translate(103.4375,38.625)"/>
<path d="M0 0 C2.0625 0.4375 2.0625 0.4375 4 1 C4.51577889 10.14074803 4.47255334 18.70679467 -1.703125 26.015625 C-4.57745773 28.49889205 -7.69758192 30.34629829 -11 32.1875 C-11.61617187 32.54263672 -12.23234375 32.89777344 -12.8671875 33.26367188 C-20.57090083 37.61974154 -28.67104407 38.1815421 -37.40625 36.55078125 C-38.95888918 36.10217034 -40.48530909 35.56360592 -42 35 C-42 34.01 -42 33.02 -42 32 C-42.7425 31.731875 -43.485 31.46375 -44.25 31.1875 C-46.90340523 30.04171138 -48.73676598 28.76815158 -51 27 C-51.886875 26.505 -52.77375 26.01 -53.6875 25.5 C-56 24 -56 24 -57 21 C-57.99 20.34 -58.98 19.68 -60 19 C-63.12481645 12.97356828 -63.12481645 12.97356828 -62.6875 9.5625 C-62.460625 9.046875 -62.23375 8.53125 -62 8 C-61.67 8.99 -61.34 9.98 -61 11 C-58.98491642 11.73323796 -58.98491642 11.73323796 -57 12 C-57 12.66 -57 13.32 -57 14 C-55.86820313 14.06058594 -54.73640625 14.12117188 -53.5703125 14.18359375 C-52.08852855 14.26799917 -50.6067584 14.35264717 -49.125 14.4375 C-48.00544922 14.49647461 -48.00544922 14.49647461 -46.86328125 14.55664062 C-41.2265625 14.88671875 -41.2265625 14.88671875 -39 16 C-39 16.66 -39 17.32 -39 18 C-38.67 18 -38.34 18 -38 18 C-37.67 17.34 -37.34 16.68 -37 16 C-36.34 16 -35.68 16 -35 16 C-34.92652344 15.41605469 -34.85304688 14.83210938 -34.77734375 14.23046875 C-33.72492333 11.21070965 -32.11496046 10.19519483 -29.5625 8.3125 C-28.75941406 7.71050781 -27.95632812 7.10851562 -27.12890625 6.48828125 C-25 5 -25 5 -23 4 C-25.42108679 9.20935262 -28.66780543 13.83390272 -33.875 16.4375 C-34.57625 16.623125 -35.2775 16.80875 -36 17 C-36 17.99 -36 18.98 -36 20 C-31.71 19.34 -27.42 18.68 -23 18 C-22.505 16.515 -22.505 16.515 -22 15 C-20.02583732 13.94991347 -18.02417134 12.95012124 -16 12 C-15.34 11.34 -14.68 10.68 -14 10 C-10.91703797 8.62979465 -7.8138748 7.32994924 -4.6875 6.0625 C-2.53466129 4.70700896 -1.96954381 3.31198909 -1 1 C-0.67 0.67 -0.34 0.34 0 0 Z " fill="#CF1E32" transform="translate(82,63)"/>
<path d="M0 0 C0.99 0.33 1.98 0.66 3 1 C2.67 2.32 2.34 3.64 2 5 C4.64 4.67 7.28 4.34 10 4 C12.56780471 7.8415976 12.22688882 11.8139175 12.125 16.25 C12.11597656 16.99507812 12.10695312 17.74015625 12.09765625 18.5078125 C12.07418358 20.33868059 12.03831525 22.16938238 12 24 C13.98 19.545 13.98 19.545 16 15 C17.36498793 20.4599517 15.52846897 22.52520706 12.81640625 27.23828125 C9.14659196 32.81797739 4.84926483 36.79683117 -1 40 C-2.39772964 40.97645783 -3.79333057 41.95596566 -5.1875 42.9375 C-13.60516685 48.58675221 -22.02906943 51.12138942 -32.125 51.25 C-33.34445313 51.27578125 -34.56390625 51.3015625 -35.8203125 51.328125 C-39 51 -39 51 -40.9296875 49.484375 C-41.28289063 48.99453125 -41.63609375 48.5046875 -42 48 C-41.24976563 47.92523438 -40.49953125 47.85046875 -39.7265625 47.7734375 C-29.35696635 46.44132313 -22.10012755 42.72660939 -15 35 C-11.37931034 32 -11.37931034 32 -9 32 C-9.020625 31.030625 -9.04125 30.06125 -9.0625 29.0625 C-9 26 -9 26 -8 25 C-7.79689514 21.84811341 -7.65339339 18.7039488 -7.5703125 15.546875 C-7.33073042 10.41582552 -7.33073042 10.41582552 -5.52734375 8.1484375 C-5.02332031 7.76945312 -4.51929688 7.39046875 -4 7 C-3.30062468 5.68352881 -2.63270867 4.34977849 -2 3 C-1.34 2.01 -0.68 1.02 0 0 Z " fill="#245D91" transform="translate(95,53)"/>
<path d="M0 0 C0.33 0.66 0.66 1.32 1 2 C0.0625 4.125 0.0625 4.125 -1 6 C-1.66 6 -2.32 6 -3 6 C-3.09796875 6.62648438 -3.1959375 7.25296875 -3.296875 7.8984375 C-3.44640625 8.71570312 -3.5959375 9.53296875 -3.75 10.375 C-3.88921875 11.18710937 -4.0284375 11.99921875 -4.171875 12.8359375 C-5 15 -5 15 -7.078125 16.2890625 C-7.71234375 16.52367188 -8.3465625 16.75828125 -9 17 C-10.08824224 32.365066 -10.08824224 32.365066 -6.3125 46.75 C-3.63796388 49.35225136 -1.55948801 50.01546076 2 51 C3.75 52.5625 3.75 52.5625 5 54 C10.05992602 56.52996301 17.92418513 55.54197104 23.25 54 C24.61125 53.505 24.61125 53.505 26 53 C25.195625 53.763125 24.39125 54.52625 23.5625 55.3125 C20.83200976 57.79430898 20.83200976 57.79430898 20 61 C19.34 61 18.68 61 18 61 C17.67 61.99 17.34 62.98 17 64 C16.34 64 15.68 64 15 64 C14.67 64.66 14.34 65.32 14 66 C14 65.01 14 64.02 14 63 C14.66 63 15.32 63 16 63 C16 62.34 16 61.68 16 61 C14.55367187 60.90912109 14.55367187 60.90912109 13.078125 60.81640625 C11.81484375 60.73261719 10.5515625 60.64882812 9.25 60.5625 C7.99703125 60.48128906 6.7440625 60.40007812 5.453125 60.31640625 C2.81682447 60.07484478 0.51962706 59.75716066 -2 59 C-2 58.34 -2 57.68 -2 57 C-2.639375 56.87625 -3.27875 56.7525 -3.9375 56.625 C-4.618125 56.41875 -5.29875 56.2125 -6 56 C-6.33 55.34 -6.66 54.68 -7 54 C-5.98487475 59.92156395 -4.97488575 63.46943592 0 67 C0.33 67.99 0.66 68.98 1 70 C2.9717304 71.05464649 4.97762948 72.04605164 7 73 C10.375 75.0625 10.375 75.0625 13 77 C13 77.66 13 78.32 13 79 C3.59754914 76.83020365 -2.90566312 69.78678847 -8.203125 62.10546875 C-12.6160116 54.47884952 -15.35932037 46.84826403 -15 38 C-14.34 38 -13.68 38 -13 38 C-13.04640625 36.97261719 -13.0928125 35.94523437 -13.140625 34.88671875 C-13.53992121 22.29212385 -11.59125731 12.71384827 -3 3 C-2.01038578 1.98972098 -1.01344103 0.98637583 0 0 Z M-12 40 C-11 42 -11 42 -11 42 Z M-11 42 C-10.67 43.32 -10.34 44.64 -10 46 C-9.67 45.34 -9.34 44.68 -9 44 C-9.66 43.34 -10.32 42.68 -11 42 Z M-9 46 C-8.67 46.99 -8.34 47.98 -8 49 C-8 48.01 -8 47.02 -8 46 C-8.33 46 -8.66 46 -9 46 Z M-6 50 C-5.30735592 53.10961466 -5.30735592 53.10961466 -2.890625 54.38671875 C-2.01921875 54.81597656 -1.1478125 55.24523437 -0.25 55.6875 C0.61109375 56.12449219 1.4721875 56.56148437 2.359375 57.01171875 C5.11028252 58.04127438 7.09070905 58.19360389 10 58 C9.44570313 57.72285156 8.89140625 57.44570312 8.3203125 57.16015625 C3.546875 54.7734375 -1.2265625 52.38671875 -6 50 Z " fill="#BA4F5B" transform="translate(27,18)"/>
<path d="M0 0 C5.18829826 3.82802516 6.85111258 6.80279487 8.05859375 13.0546875 C8.77335448 18.35582957 8.56070104 22.97954375 7.68359375 28.2421875 C7.35359375 28.2421875 7.02359375 28.2421875 6.68359375 28.2421875 C6.62751953 26.81326172 6.62751953 26.81326172 6.5703125 25.35546875 C6.50457031 24.10121094 6.43882813 22.84695312 6.37109375 21.5546875 C6.31308594 20.31332031 6.25507812 19.07195313 6.1953125 17.79296875 C5.67005831 14.14826599 4.87789944 12.16251037 2.68359375 9.2421875 C2.02359375 8.9121875 1.36359375 8.5821875 0.68359375 8.2421875 C-0.04334529 6.26329789 -0.71456876 4.26264192 -1.31640625 2.2421875 C-3.62640625 2.5721875 -5.93640625 2.9021875 -8.31640625 3.2421875 C-7.22571957 7.01764138 -6.40809715 9.71262222 -3.31640625 12.2421875 C-3.97640625 13.2321875 -4.63640625 14.2221875 -5.31640625 15.2421875 C-5.31640625 14.5821875 -5.31640625 13.9221875 -5.31640625 13.2421875 C-6.15171875 12.84 -6.15171875 12.84 -7.00390625 12.4296875 C-9.31640625 11.2421875 -9.31640625 11.2421875 -11.37890625 9.6171875 C-16.96303311 7.00334088 -23.16503553 7.65876493 -29.00390625 9.2421875 C-29.76703125 9.5721875 -30.53015625 9.9021875 -31.31640625 10.2421875 C-30.65640625 9.2521875 -29.99640625 8.2621875 -29.31640625 7.2421875 C-32.5316493 8.65063468 -34.63824493 10.34563536 -37.06640625 12.8671875 C-37.98679687 13.81464844 -37.98679687 13.81464844 -38.92578125 14.78125 C-39.3846875 15.26335938 -39.84359375 15.74546875 -40.31640625 16.2421875 C-40.97640625 15.9121875 -41.63640625 15.5821875 -42.31640625 15.2421875 C-31.18123752 3.74457205 -17.03181228 -10.26866021 0 0 Z " fill="#245B8C" transform="translate(105.31640625,39.7578125)"/>
<path d="M0 0 C-1.31145073 2.62290145 -2.43465654 2.74092252 -5.125 3.8125 C-14.12622141 7.73537779 -18.52443626 12.13898454 -23 21 C-25.19090686 27.57272059 -25.11877933 36.25735705 -23.12890625 42.9140625 C-20.45436901 48.15790928 -17.46676555 50.86888801 -12 53 C-6.57562404 53.90406266 -2.76347036 52.6085671 2 50 C2.99 50.495 2.99 50.495 4 51 C4.625 53.0625 4.625 53.0625 5 55 C3.68 55.66 2.36 56.32 1 57 C1 56.34 1 55.68 1 55 C0.071875 55.2475 0.071875 55.2475 -0.875 55.5 C-7.00381281 56.48061005 -13.37398926 57.00053906 -19 54 C-19 53.34 -19 52.68 -19 52 C-19.66 52 -20.32 52 -21 52 C-21 51.34 -21 50.68 -21 50 C-21.66 50 -22.32 50 -23 50 C-23.28875 49.195625 -23.5775 48.39125 -23.875 47.5625 C-24.73262568 44.8673532 -24.73262568 44.8673532 -27 44 C-27.38734374 34.82210532 -27.66928561 26.90837307 -23.95703125 18.31640625 C-22.66816735 15.19682955 -22.2974091 12.34585243 -22 9 C-22.928125 9.33 -23.85625 9.66 -24.8125 10 C-28 11 -28 11 -31 11 C-23.17229031 4.4007265 -10.67114502 -3.44230484 0 0 Z " fill="#CE717D" transform="translate(59,6)"/>
<path d="M0 0 C7.75 -0.125 7.75 -0.125 10 1 C10 2.65 10 4.3 10 6 C10.61875 6.2475 11.2375 6.495 11.875 6.75 C14.49111222 8.28888954 14.9209421 9.18219815 16 12 C17.0990992 21.18615543 16.02173554 28.21630992 11 36 C9.49857666 31.49572997 9.98317732 27.06239827 10.0625 22.34765625 C10.01190571 19.6376996 9.81946444 17.55442431 9 15 C8.236875 15.350625 7.47375 15.70125 6.6875 16.0625 C4 17 4 17 1 16 C1 14.02 1 12.04 1 10 C1.99 10.33 2.98 10.66 4 11 C4 11.66 4 12.32 4 13 C4.66 13 5.32 13 6 13 C5.67 11.35 5.34 9.7 5 8 C4.01 7.67 3.02 7.34 2 7 C0.8125 3.4375 0.8125 3.4375 0 0 Z " fill="#2F5F92" transform="translate(96,42)"/>
<path d="M0 0 C2.475 0.495 2.475 0.495 5 1 C6.59789351 5.95346987 5.28306814 10.13282415 4 15 C3.34 15 2.68 15 2 15 C2 15.66 2 16.32 2 17 C-1.86456406 19.92770005 -5.28032161 20.36465868 -10 21 C-10.33 21.66 -10.66 22.32 -11 23 C-12.32 22.67 -13.64 22.34 -15 22 C-14.07265428 20.51444617 -13.13275187 19.03672494 -12.1875 17.5625 C-11.40439453 16.32693359 -11.40439453 16.32693359 -10.60546875 15.06640625 C-9 13 -9 13 -6 12 C-5.30840599 10.15274948 -5.30840599 10.15274948 -5 8 C-4.5 6 -4.5 6 -4 4 C-3.34 4 -2.68 4 -2 4 C-1.34 2.68 -0.68 1.36 0 0 Z " fill="#215D93" transform="translate(69,56)"/>
<path d="M0 0 C2.0625 0.4375 2.0625 0.4375 4 1 C4.76646851 8.81797878 2.03916589 14.87966848 -1 22 C-1.33 22 -1.66 22 -2 22 C-2 20.35 -2 18.7 -2 17 C-1.34 17 -0.68 17 0 17 C0.66 12.71 1.32 8.42 2 4 C0.741875 5.093125 -0.51625 6.18625 -1.8125 7.3125 C-2.52019531 7.92738281 -3.22789063 8.54226562 -3.95703125 9.17578125 C-5.97279815 10.92051888 -5.97279815 10.92051888 -7.5625 12.671875 C-9.90841269 14.83929433 -12.95876518 15.15244276 -16 16 C-18.10803684 16.96698937 -20.15419856 18.01172524 -22.203125 19.09765625 C-26.13782879 21.07356185 -29.34617671 21.1054834 -33.6875 21.0625 C-35.45673828 21.04896484 -35.45673828 21.04896484 -37.26171875 21.03515625 C-38.16535156 21.02355469 -39.06898437 21.01195313 -40 21 C-40 19 -40 19 -38.625 17.375 C-37 16 -37 16 -35 16 C-34.92652344 15.41605469 -34.85304688 14.83210938 -34.77734375 14.23046875 C-33.72492333 11.21070965 -32.11496046 10.19519483 -29.5625 8.3125 C-28.75941406 7.71050781 -27.95632812 7.10851562 -27.12890625 6.48828125 C-25 5 -25 5 -23 4 C-25.42108679 9.20935262 -28.66780543 13.83390272 -33.875 16.4375 C-34.57625 16.623125 -35.2775 16.80875 -36 17 C-36 17.99 -36 18.98 -36 20 C-31.71 19.34 -27.42 18.68 -23 18 C-22.67 17.01 -22.34 16.02 -22 15 C-20.02583732 13.94991347 -18.02417134 12.95012124 -16 12 C-15.34 11.34 -14.68 10.68 -14 10 C-10.91703797 8.62979465 -7.8138748 7.32994924 -4.6875 6.0625 C-2.53466129 4.70700896 -1.96954381 3.31198909 -1 1 C-0.67 0.67 -0.34 0.34 0 0 Z " fill="#8A3558" transform="translate(82,63)"/>
<path d="M0 0 C0.99 0.495 0.99 0.495 2 1 C2 1.66 2 2.32 2 3 C3.32 3.33 4.64 3.66 6 4 C6 4.66 6 5.32 6 6 C7.13179687 6.06058594 8.26359375 6.12117188 9.4296875 6.18359375 C10.91147145 6.26799917 12.3932416 6.35264717 13.875 6.4375 C14.99455078 6.49647461 14.99455078 6.49647461 16.13671875 6.55664062 C21.7734375 6.88671875 21.7734375 6.88671875 24 8 C24 8.66 24 9.32 24 10 C23.34 10 22.68 10 22 10 C22 10.99 22 11.98 22 13 C29.92 12.505 29.92 12.505 38 12 C37.67 12.66 37.34 13.32 37 14 C36.44538086 13.99476318 35.89076172 13.98952637 35.31933594 13.98413086 C32.79623557 13.96328969 30.27315336 13.95031718 27.75 13.9375 C26.87730469 13.92912109 26.00460938 13.92074219 25.10546875 13.91210938 C24.26113281 13.90888672 23.41679688 13.90566406 22.546875 13.90234375 C21.77182617 13.89710693 20.99677734 13.89187012 20.19824219 13.88647461 C17.94835253 14.00266727 16.10786453 14.19233252 14 15 C13.67 15.99 13.34 16.98 13 18 C12.34 17.01 11.68 16.02 11 15 C9.67203709 14.64587656 8.33783393 14.31478446 7 14 C2.74142057 11.67713849 1.56890313 8.47137392 0 4 C0 2.68 0 1.36 0 0 Z " fill="#C51F31" transform="translate(19,71)"/>
<path d="M0 0 C2.67733998 2.67031284 3.00280229 4.03721441 3.29296875 7.890625 C3.27314945 9.34404009 3.23754845 10.79731167 3.1875 12.25 C3.16719727 13.36761719 3.16719727 13.36761719 3.14648438 14.5078125 C3.11127204 16.33885416 3.05746851 18.16952169 3 20 C4.98 15.545 4.98 15.545 7 11 C8.36498793 16.4599517 6.52846897 18.52520706 3.81640625 23.23828125 C-0.83568997 30.3114684 -6.53052265 34.27312393 -14 38 C-13.62488281 37.5875 -13.24976562 37.175 -12.86328125 36.75 C-9.04762974 32.44417664 -5.84588158 28.00091509 -3 23 C-2.65106689 22.38946777 -2.30213379 21.77893555 -1.94262695 21.14990234 C-0.90692794 18.78772531 -0.78048544 17.2690949 -0.83984375 14.70703125 C-0.85080078 13.91232422 -0.86175781 13.11761719 -0.87304688 12.29882812 C-0.89431641 11.47833984 -0.91558594 10.65785156 -0.9375 9.8125 C-0.99901988 6.87093848 -1.02066358 3.94308351 -1 1 C-0.67 0.67 -0.34 0.34 0 0 Z " fill="#C7D8E4" transform="translate(104,57)"/>
<path d="M0 0 C0 0.99 0 1.98 0 3 C-0.99 3.33 -1.98 3.66 -3 4 C-3.33 5.65 -3.66 7.3 -4 9 C-3.01 8.34 -2.02 7.68 -1 7 C1.33199388 6.92094936 3.66832622 6.91201231 6 7 C6 6.34 6 5.68 6 5 C7.65 5 9.3 5 11 5 C8.65276062 7.68475092 6.43528366 8.84717014 3.125 10.125 C1.86042969 10.62386719 1.86042969 10.62386719 0.5703125 11.1328125 C-4.36206113 12.7969264 -8.92303894 13.18373298 -14.125 13.25 C-15.34445313 13.27578125 -16.56390625 13.3015625 -17.8203125 13.328125 C-21 13 -21 13 -22.9296875 11.484375 C-23.28289063 10.99453125 -23.63609375 10.5046875 -24 10 C-23.24976563 9.92523438 -22.49953125 9.85046875 -21.7265625 9.7734375 C-13.21343064 8.67981099 -6.17156853 6.17156853 0 0 Z " fill="#6F8DA6" transform="translate(77,91)"/>
<path d="M0 0 C0.33 0.66 0.66 1.32 1 2 C0.0625 4.125 0.0625 4.125 -1 6 C-1.66 6 -2.32 6 -3 6 C-3.09796875 6.62648438 -3.1959375 7.25296875 -3.296875 7.8984375 C-3.44640625 8.71570312 -3.5959375 9.53296875 -3.75 10.375 C-3.88921875 11.18710937 -4.0284375 11.99921875 -4.171875 12.8359375 C-5 15 -5 15 -9 17 C-9 24.92 -9 32.84 -9 41 C-11 38 -11 38 -11 36 C-11.66 36 -12.32 36 -13 36 C-13.69062264 22.85898582 -11.85362501 13.01049867 -3 3 C-2.01038578 1.98972098 -1.01344103 0.98637583 0 0 Z " fill="#CA606B" transform="translate(27,18)"/>
<path d="M0 0 C1 2 1 2 0.4765625 4.05859375 C0.19554688 4.84363281 -0.08546875 5.62867188 -0.375 6.4375 C-0.65085937 7.21996094 -0.92671875 8.00242187 -1.2109375 8.80859375 C-1.47132812 9.53175781 -1.73171875 10.25492188 -2 11 C-2.33 11.99 -2.66 12.98 -3 14 C-4.66666667 15.66666667 -6.33333333 17.33333333 -8 19 C-9.05287814 20.63377642 -10.0727001 22.29181597 -11 24 C-10.01 24.33 -9.02 24.66 -8 25 C-7.67 23.68 -7.34 22.36 -7 21 C-6.67 21.33 -6.34 21.66 -6 22 C-4.33382885 22.04063832 -2.66611905 22.042721 -1 22 C-3 24 -3 24 -6 25 C-6.33 25.66 -6.66 26.32 -7 27 C-8.92578125 27.6328125 -8.92578125 27.6328125 -11.3125 28.125 C-12.09238281 28.29257813 -12.87226562 28.46015625 -13.67578125 28.6328125 C-16 29 -16 29 -20 29 C-20 28.01 -20 27.02 -20 26 C-19.21625 25.7525 -18.4325 25.505 -17.625 25.25 C-14.5144918 23.76880562 -14.38379532 23.02705226 -13 20 C-12.195625 19.236875 -11.39125 18.47375 -10.5625 17.6875 C-8.30481874 15.31968795 -7.47248045 14.14403285 -6.3125 11.25 C-5 8 -5 8 -3 7 C-2.67 6.01 -2.34 5.02 -2 4 C-2.66 3.67 -3.32 3.34 -4 3 C-2.68 2.01 -1.36 1.02 0 0 Z " fill="#2C578B" transform="translate(66,54)"/>
<path d="M0 0 C0.66 0.33 1.32 0.66 2 1 C1.67 1.66 1.34 2.32 1 3 C1.83402344 3.01417969 2.66804688 3.02835938 3.52734375 3.04296875 C10.91641607 3.35613676 17.17065964 4.10448601 23 9 C23.495 10.485 23.495 10.485 24 12 C23.34 12.66 22.68 13.32 22 14 C22 13.34 22 12.68 22 12 C21.1646875 11.5978125 21.1646875 11.5978125 20.3125 11.1875 C18 10 18 10 15.9375 8.375 C10.35337314 5.76115338 4.15137072 6.41657743 -1.6875 8 C-2.450625 8.33 -3.21375 8.66 -4 9 C-3.34 8.01 -2.68 7.02 -2 6 C-5.21524305 7.40844718 -7.32183868 9.10344786 -9.75 11.625 C-10.36359375 12.25664063 -10.9771875 12.88828125 -11.609375 13.5390625 C-12.06828125 14.02117188 -12.5271875 14.50328125 -13 15 C-13.66 14.67 -14.32 14.34 -15 14 C-13.25311063 12.22600373 -11.50266549 10.45577447 -9.75 8.6875 C-9.25886719 8.18798828 -8.76773438 7.68847656 -8.26171875 7.17382812 C-5.64859804 4.54328661 -3.04342089 2.12314838 0 0 Z " fill="#BCD2E5" transform="translate(78,41)"/>
<path d="M0 0 C2.20029834 2.20029834 2.68582609 3.5781256 3.625 6.5 C3.88539062 7.2940625 4.14578125 8.088125 4.4140625 8.90625 C5 11 5 11 5 13 C5.33 13.99 5.66 14.98 6 16 C5.01 16 4.02 16 3 16 C3.53725895 19.37705625 4.11064623 22.696686 5 26 C1.70839526 23.33582725 0.71319093 20.17025209 -0.6875 16.25 C-1.12449219 15.05890625 -1.56148437 13.8678125 -2.01171875 12.640625 C-3.02114075 8.92212182 -3.1818127 5.83280826 -3 2 C-2.34 2 -1.68 2 -1 2 C-0.67 1.34 -0.34 0.68 0 0 Z M0 4 C1 6 1 6 1 6 Z M1 6 C1.33 7.32 1.66 8.64 2 10 C2.33 9.34 2.66 8.68 3 8 C2.34 7.34 1.68 6.68 1 6 Z " fill="#D4939C" transform="translate(15,54)"/>
<path d="M0 0 C7.75 -0.125 7.75 -0.125 10 1 C10 2.65 10 4.3 10 6 C10.99 6.33 11.98 6.66 13 7 C13 7.99 13 8.98 13 10 C10.36 10 7.72 10 5 10 C5 9.34 5 8.68 5 8 C4.01 7.67 3.02 7.34 2 7 C0.8125 3.4375 0.8125 3.4375 0 0 Z " fill="#215B95" transform="translate(96,42)"/>
<path d="M0 0 C4.95 0 9.9 0 15 0 C15 0.99 15 1.98 15 3 C12 5 12 5 9.875 5.9375 C7.65504271 6.91908645 7.65504271 6.91908645 7 10 C6.34 9.01 5.68 8.02 5 7 C2.97536745 6.34786708 2.97536745 6.34786708 1 6 C0.67 5.67 0.34 5.34 0 5 C0 3.35 0 1.7 0 0 Z " fill="#D01B2F" transform="translate(25,79)"/>
<path d="M0 0 C0.556875 0.474375 1.11375 0.94875 1.6875 1.4375 C3.90401153 3.15453424 3.90401153 3.15453424 6.5625 3.5 C9.36554452 4.07498349 10.15646487 4.89310271 12 7 C17.05992602 9.52996301 24.92418513 8.54197104 30.25 7 C31.1575 6.67 32.065 6.34 33 6 C29.20576346 10.37796523 25.92338626 11.77110849 20.15625 12.22265625 C14.27137688 12.3901712 9.95368643 12.30245762 5 9 C5.66 8.67 6.32 8.34 7 8 C7.99 8.33 8.98 8.66 10 9 C9.36191406 8.60167969 8.72382813 8.20335938 8.06640625 7.79296875 C7.24011719 7.26316406 6.41382813 6.73335938 5.5625 6.1875 C4.73878906 5.66542969 3.91507813 5.14335938 3.06640625 4.60546875 C1 3 1 3 0 0 Z " fill="#F5C3CE" transform="translate(20,65)"/>
<path d="M0 0 C2.0625 0.4375 2.0625 0.4375 4 1 C4.76646851 8.81797878 2.03916589 14.87966848 -1 22 C-1.33 22 -1.66 22 -2 22 C-2 20.35 -2 18.7 -2 17 C-1.34 17 -0.68 17 0 17 C0.66 12.71 1.32 8.42 2 4 C0.741875 5.093125 -0.51625 6.18625 -1.8125 7.3125 C-2.52019531 7.92738281 -3.22789063 8.54226562 -3.95703125 9.17578125 C-5.99730769 10.91134615 -5.99730769 10.91134615 -7.51171875 12.79296875 C-8.00285156 13.19128906 -8.49398437 13.58960937 -9 14 C-11.1875 13.6875 -11.1875 13.6875 -13 13 C-12.38511719 12.55269531 -11.77023438 12.10539062 -11.13671875 11.64453125 C-5.10126631 7.1905564 -5.10126631 7.1905564 -1 1 C-0.67 0.67 -0.34 0.34 0 0 Z " fill="#9F3554" transform="translate(82,63)"/>
<path d="M0 0 C0.19294408 4.82360189 -0.24252386 8.49646738 -2 13 C-2.66 13 -3.32 13 -4 13 C-4 12.34 -4 11.68 -4 11 C-4.99 11.33 -5.98 11.66 -7 12 C-7.99 10.68 -8.98 9.36 -10 8 C-8.71451591 6.66070495 -7.42141845 5.32871357 -6.125 4 C-5.04605469 2.88625 -5.04605469 2.88625 -3.9453125 1.75 C-2 0 -2 0 0 0 Z " fill="#CC1C31" transform="translate(84,67)"/>
<path d="M0 0 C-1.32882766 2.65765532 -2.5940386 2.82964912 -5.3125 3.9375 C-8.55546753 5.3162776 -11.31585735 6.66596291 -14 9 C-14.66 8.67 -15.32 8.34 -16 8 C-14.625 6.5 -14.625 6.5 -13 5 C-12.34 5 -11.68 5 -11 5 C-11 4.34 -11 3.68 -11 3 C-11.9075 3.350625 -12.815 3.70125 -13.75 4.0625 C-17.00591313 5.00170571 -17.92749994 4.95514676 -21 4 C-7.13873904 -1.88966622 -7.13873904 -1.88966622 0 0 Z " fill="#D5AFB5" transform="translate(59,6)"/>
<path d="M0 0 C1 2 1 2 0.4765625 4.05859375 C0.19554688 4.84363281 -0.08546875 5.62867188 -0.375 6.4375 C-0.65085937 7.21996094 -0.92671875 8.00242187 -1.2109375 8.80859375 C-1.47132812 9.53175781 -1.73171875 10.25492188 -2 11 C-2.33 11.99 -2.66 12.98 -3 14 C-4.70703125 15.71875 -4.70703125 15.71875 -6.8125 17.5 C-7.49957031 18.0878125 -8.18664063 18.675625 -8.89453125 19.28125 C-10.89158044 20.91149424 -12.9250562 22.47060322 -15 24 C-13.87219868 21.2317604 -12.76636328 19.77834465 -10.5625 17.6875 C-8.30481874 15.31968795 -7.47248045 14.14403285 -6.3125 11.25 C-5 8 -5 8 -3 7 C-2.67 6.01 -2.34 5.02 -2 4 C-2.66 3.67 -3.32 3.34 -4 3 C-2.68 2.01 -1.36 1.02 0 0 Z " fill="#3A517F" transform="translate(66,54)"/>
<path d="M0 0 C3.70097529 1.1895992 5.38711416 3.42811096 7.1796875 6.80859375 C9.59726351 13.26697538 9.33315076 20.33424621 8 27 C7.67 27 7.34 27 7 27 C6.96261719 26.04738281 6.92523438 25.09476563 6.88671875 24.11328125 C6.82097656 22.85902344 6.75523438 21.60476562 6.6875 20.3125 C6.62949219 19.07113281 6.57148437 17.82976563 6.51171875 16.55078125 C5.98646456 12.90607849 5.19430569 10.92032287 3 8 C2.34 7.67 1.68 7.34 1 7 C0.59270772 4.67843403 0.25561323 2.3431213 0 0 Z " fill="#88A1BB" transform="translate(105,41)"/>
<path d="M0 0 C-0.14030595 3.01657791 -0.29351465 5.23841273 -2.40234375 7.51171875 C-3.88904235 8.73256066 -5.44134898 9.87246522 -7 11 C-7.99 10.01 -8.98 9.02 -10 8 C-9.360625 7.731875 -8.72125 7.46375 -8.0625 7.1875 C-5.66868314 6.11332248 -5.66868314 6.11332248 -5 3 C-7.97 2.67 -10.94 2.34 -14 2 C-14 1.67 -14 1.34 -14 1 C-4.58997722 -0.14806378 -4.58997722 -0.14806378 0 0 Z " fill="#C01F37" transform="translate(60,61)"/>
<path d="M0 0 C0.4846875 0.28875 0.969375 0.5775 1.46875 0.875 C6.63640485 3.73708576 10.09739384 4.66642328 16 4 C18.02915769 3.06057514 20.03875312 2.07401615 22 1 C22.66 1.33 23.32 1.66 24 2 C24.625 4.0625 24.625 4.0625 25 6 C23.02 6.99 23.02 6.99 21 8 C21 7.34 21 6.68 21 6 C20.07058594 6.04640625 19.14117187 6.0928125 18.18359375 6.140625 C5.90509666 6.49912127 5.90509666 6.49912127 0 2 C0 1.34 0 0.68 0 0 Z " fill="#CD8493" transform="translate(39,55)"/>
<path d="M0 0 C2.375 -0.125 2.375 -0.125 5 0 C7 2 7 2 7.265625 5.01171875 C7.21386351 17.18860828 7.21386351 17.18860828 5 23 C3.68 23.33 2.36 23.66 1 24 C1.495 22.783125 1.99 21.56625 2.5 20.3125 C4.55731273 14.2661255 4.26343324 8.31264087 4 2 C2.68 2 1.36 2 0 2 C0 1.34 0 0.68 0 0 Z " fill="#485986" transform="translate(81,62)"/>
<path d="M0 0 C4.87702265 2.4828479 4.87702265 2.4828479 7 4 C7.36162029 5.32594105 7.69728039 6.65938457 8 8 C10.74941676 9.58376759 10.74941676 9.58376759 14 11 C17.375 13.0625 17.375 13.0625 20 15 C20 15.66 20 16.32 20 17 C11.63148548 15.06880434 4.91711581 8.82051547 0 2 C0 1.34 0 0.68 0 0 Z " fill="#D68992" transform="translate(20,80)"/>
<path d="M0 0 C0.36923077 6.4 0.36923077 6.4 -1.5 9.4375 C-1.995 9.953125 -2.49 10.46875 -3 11 C-2.67 8.69 -2.34 6.38 -2 4 C-2.99 4.66 -3.98 5.32 -5 6 C-6.32 6 -7.64 6 -9 6 C-9.33 6.66 -9.66 7.32 -10 8 C-9.67372714 4.98197607 -9.38918764 3.40308719 -7.25 1.1875 C-4.62847443 -0.19608294 -2.92325122 -0.24360427 0 0 Z " fill="#BC2839" transform="translate(37,15)"/>
<path d="M0 0 C0.66 0.33 1.32 0.66 2 1 C1.67 1.66 1.34 2.32 1 3 C1.66 3.66 2.32 4.32 3 5 C0.82575883 7.50037734 -0.73045798 8.43628586 -4 9 C-3.34 8.01 -2.68 7.02 -2 6 C-5.21524305 7.40844718 -7.32183868 9.10344786 -9.75 11.625 C-10.36359375 12.25664063 -10.9771875 12.88828125 -11.609375 13.5390625 C-12.06828125 14.02117188 -12.5271875 14.50328125 -13 15 C-13.66 14.67 -14.32 14.34 -15 14 C-13.25311063 12.22600373 -11.50266549 10.45577447 -9.75 8.6875 C-9.25886719 8.18798828 -8.76773438 7.68847656 -8.26171875 7.17382812 C-5.64859804 4.54328661 -3.04342089 2.12314838 0 0 Z " fill="#98AFC6" transform="translate(78,41)"/>
<path d="M0 0 C1.11375 0.7425 1.11375 0.7425 2.25 1.5 C0.25 2.5 0.25 2.5 -1.75 2.0625 C-6.38559858 1.19332527 -12.43072489 0.34036244 -16.75 2.5 C-18.74960012 2.539992 -20.75047242 2.54346799 -22.75 2.5 C-21.75 0.5 -21.75 0.5 -19.4375 -0.625 C-13.2386879 -2.09590457 -5.87978968 -2.95389434 0 0 Z " fill="#9EB2C5" transform="translate(102.75,38.5)"/>
<path d="M0 0 C2.91697011 0.14104691 5.8334802 0.28764814 8.75 0.4375 C9.9875 0.49647461 9.9875 0.49647461 11.25 0.55664062 C12.44882812 0.61948242 12.44882812 0.61948242 13.671875 0.68359375 C14.4050293 0.72025146 15.13818359 0.75690918 15.89355469 0.79467773 C18.01177605 1.00114785 19.9519456 1.43132086 22 2 C18.20947276 3.74893812 15.16690915 4.29655519 11 4.3125 C9.989375 4.32925781 8.97875 4.34601563 7.9375 4.36328125 C4.60355863 3.95097201 2.70051582 2.96085248 0 1 C0 0.67 0 0.34 0 0 Z " fill="#BC3245" transform="translate(29,70)"/>
<path d="M0 0 C0.33 0 0.66 0 1 0 C1.6053938 9.33651766 1.13668843 16.03813293 -4 24 C-5.07478554 20.77564339 -4.93162085 19.71203245 -4.1875 16.5 C-4.01605469 15.7265625 -3.84460938 14.953125 -3.66796875 14.15625 C-3 12 -3 12 -1 9 C-0.54605448 6.72087062 -0.54605448 6.72087062 -0.375 4.3125 C-0.30023438 3.50425781 -0.22546875 2.69601563 -0.1484375 1.86328125 C-0.09945312 1.24839844 -0.05046875 0.63351563 0 0 Z " fill="#365F86" transform="translate(111,54)"/>
<path d="M0 0 C7.75 -0.125 7.75 -0.125 10 1 C10 1.66 10 2.32 10 3 C9.34 3 8.68 3 8 3 C8 3.99 8 4.98 8 6 C15.92 5.505 15.92 5.505 24 5 C23.67 5.66 23.34 6.32 23 7 C20.04142591 7.05379226 17.08382279 7.09357093 14.125 7.125 C12.86236328 7.15013672 12.86236328 7.15013672 11.57421875 7.17578125 C10.76855469 7.18222656 9.96289062 7.18867187 9.1328125 7.1953125 C8.38918457 7.20578613 7.64555664 7.21625977 6.87939453 7.22705078 C5 7 5 7 3 5 C4.32 4.67 5.64 4.34 7 4 C7 3.01 7 2.02 7 1 C4.69 1 2.38 1 0 1 C0 0.67 0 0.34 0 0 Z " fill="#B9243D" transform="translate(33,78)"/>
<path d="M0 0 C0.66 0.33 1.32 0.66 2 1 C0.01486066 2.68736844 -1.9854691 4.34825539 -4 6 C-4.97453125 6.82564453 -4.97453125 6.82564453 -5.96875 7.66796875 C-11.21568244 11.91596598 -11.21568244 11.91596598 -15.5 12.375 C-16.325 12.25125 -17.15 12.1275 -18 12 C-16.50011061 9.00022122 -13.94840874 8.44411857 -11 7 C-10.34 6.34 -9.68 5.68 -9 5 C-6.66666667 4 -4.33333333 3 -2 2 C-1.34 1.34 -0.68 0.68 0 0 Z " fill="#63426D" transform="translate(77,68)"/>
<path d="M0 0 C1.65 0 3.3 0 5 0 C2.28905819 3.34881047 -0.99626547 4.59869291 -5 6 C-8.9375 6.1875 -8.9375 6.1875 -12 6 C-10 3 -10 3 -7 2 C-4.66700175 1.96045766 -2.33291811 1.95598268 0 2 C0 1.34 0 0.68 0 0 Z " fill="#6887A5" transform="translate(83,96)"/>
<path d="M0 0 C0.33 0 0.66 0 1 0 C0.75651071 7.54816808 -1.11102341 13.12198906 -6 19 C-9.375 20.625 -9.375 20.625 -12 21 C-11.113125 20.05125 -10.22625 19.1025 -9.3125 18.125 C-4.84136432 12.92280185 -1.44117758 6.74099191 0 0 Z " fill="#CDB1BF" transform="translate(85,72)"/>
<path d="M0 0 C-0.99 0 -1.98 0 -3 0 C-3 0.66 -3 1.32 -3 2 C3.435 1.505 3.435 1.505 10 1 C10 1.33 10 1.66 10 2 C5.9280022 2.95993865 2.0545943 3.19675676 -2.125 3.25 C-3.34445313 3.27578125 -4.56390625 3.3015625 -5.8203125 3.328125 C-9 3 -9 3 -10.9296875 1.484375 C-11.28289063 0.99453125 -11.63609375 0.5046875 -12 0 C-3.42857143 -1.28571429 -3.42857143 -1.28571429 0 0 Z " fill="#CAD3DB" transform="translate(65,101)"/>
<path d="M0 0 C2.22825644 2.22825644 2.69239369 3.65761628 3.625 6.625 C3.88539062 7.44226562 4.14578125 8.25953125 4.4140625 9.1015625 C4.60742188 9.72804688 4.80078125 10.35453125 5 11 C4.01 10.01 3.02 9.02 2 8 C-0.33075929 8.95865509 -0.33075929 8.95865509 -2 12 C-3.1577506 8.52674819 -3.06866652 5.63932552 -3 2 C-2.34 2 -1.68 2 -1 2 C-0.67 1.34 -0.34 0.68 0 0 Z M0 4 C1 6 1 6 1 6 Z " fill="#E3C5CB" transform="translate(15,54)"/>
<path d="M0 0 C-7.99232003 3.76109178 -16.74446726 4.4206434 -25.3125 2 C-26.199375 1.67 -27.08625 1.34 -28 1 C-28 0.67 -28 0.34 -28 0 C-26.741875 -0.020625 -25.48375 -0.04125 -24.1875 -0.0625 C-23.47980469 -0.07410156 -22.77210937 -0.08570312 -22.04296875 -0.09765625 C-20 0 -20 0 -17 1 C-11.39784503 1.27551582 -4.89238125 -1.63079375 0 0 Z " fill="#E9B2BB" transform="translate(68,97)"/>
<path d="M0 0 C0.99 0.33 1.98 0.66 3 1 C2.34 2.32 1.68 3.64 1 5 C0.01 5 -0.98 5 -2 5 C-2.66 6.32 -3.32 7.64 -4 9 C-4.66 9 -5.32 9 -6 9 C-6.33 10.65 -6.66 12.3 -7 14 C-7.66 14 -8.32 14 -9 14 C-7.80055631 7.46969546 -4.92533226 4.33271206 0 0 Z " fill="#325781" transform="translate(74,46)"/>
<path d="M0 0 C0.556875 0.474375 1.11375 0.94875 1.6875 1.4375 C3.90401153 3.15453424 3.90401153 3.15453424 6.5625 3.5 C9.36554452 4.07498349 10.15646487 4.89310271 12 7 C14.29629994 8.14814997 16.07698086 8.30769809 18.625 8.5625 C19.44226563 8.64628906 20.25953125 8.73007813 21.1015625 8.81640625 C21.72804688 8.87699219 22.35453125 8.93757813 23 9 C23 9.33 23 9.66 23 10 C15.16506941 10.75015293 9.61084525 9.30614691 3 5 C1.21484375 3.45703125 1.21484375 3.45703125 0 2 C0 1.34 0 0.68 0 0 Z " fill="#DB9DA5" transform="translate(20,65)"/>
<path d="M0 0 C0.99 0.33 1.98 0.66 3 1 C3 1.66 3 2.32 3 3 C3.66 3 4.32 3 5 3 C5 2.01 5 1.02 5 0 C6.32 0.33 7.64 0.66 9 1 C9 1.99 9 2.98 9 4 C6.1875 5.5625 6.1875 5.5625 3 7 C2.01 6.67 1.02 6.34 0 6 C0 4.02 0 2.04 0 0 Z " fill="#3B6191" transform="translate(97,52)"/>
<path d="M0 0 C0.33 0.66 0.66 1.32 1 2 C0.0625 4.125 0.0625 4.125 -1 6 C-1.66 6 -2.32 6 -3 6 C-3.09796875 6.62648438 -3.1959375 7.25296875 -3.296875 7.8984375 C-3.44640625 8.71570312 -3.5959375 9.53296875 -3.75 10.375 C-3.95882813 11.59316406 -3.95882813 11.59316406 -4.171875 12.8359375 C-5 15 -5 15 -7.078125 16.2890625 C-7.71234375 16.52367188 -8.3465625 16.75828125 -9 17 C-9 16.34 -9 15.68 -9 15 C-8.34 14.67 -7.68 14.34 -7 14 C-6.9175 12.783125 -6.835 11.56625 -6.75 10.3125 C-6.2785455 5.18196574 -3.82370333 3.2542156 0 0 Z " fill="#B92A3E" transform="translate(27,18)"/>
<path d="M0 0 C1.32 0.33 2.64 0.66 4 1 C-3.3697851 10.47543799 -3.3697851 10.47543799 -8 11.0625 C-8.99 11.041875 -9.98 11.02125 -11 11 C-10.34 10.34 -9.68 9.68 -9 9 C-7.68 9 -6.36 9 -5 9 C-4.67 7.02 -4.34 5.04 -4 3 C-2.68 3 -1.36 3 0 3 C0 2.01 0 1.02 0 0 Z " fill="#C05460" transform="translate(76,85)"/>
<path d="M0 0 C0.66 0 1.32 0 2 0 C2.33 1.65 2.66 3.3 3 5 C4.65 5 6.3 5 8 5 C8.33 6.65 8.66 8.3 9 10 C5.91085915 9.66902062 4.9973069 8.99715301 2.8125 6.6875 C1.20592291 4.30533398 0.41425314 2.79620867 0 0 Z " fill="#BB3546" transform="translate(18,59)"/>
<path d="M0 0 C0.66 0 1.32 0 2 0 C2 0.66 2 1.32 2 2 C9.425 2.99 9.425 2.99 17 4 C17.33 4.99 17.66 5.98 18 7 C17.15179688 6.68289062 16.30359375 6.36578125 15.4296875 6.0390625 C11.90522775 4.97128768 8.79329043 4.59958921 5.125 4.375 C3.97257812 4.30023438 2.82015625 4.22546875 1.6328125 4.1484375 C0.32957031 4.07496094 0.32957031 4.07496094 -1 4 C-1 1 -1 1 0 0 Z " fill="#426888" transform="translate(80,41)"/>
<path d="M0 0 C1.10769603 4.43078411 0.94318687 4.88848754 -1.1875 8.625 C-1.61417969 9.40101562 -2.04085937 10.17703125 -2.48046875 10.9765625 C-4.14183581 13.18887134 -5.45726609 13.9872623 -8 15 C-7.34 12.36 -6.68 9.72 -6 7 C-5.34 7.66 -4.68 8.32 -4 9 C-2.68 6.03 -1.36 3.06 0 0 Z " fill="#A9B8C7" transform="translate(111,68)"/>
<path d="M0 0 C0.33 0 0.66 0 1 0 C1.08114106 1.77007714 1.13925505 3.54122098 1.1875 5.3125 C1.23970703 6.79169922 1.23970703 6.79169922 1.29296875 8.30078125 C1 11 1 11 -0.51171875 12.85546875 C-1.00285156 13.23316406 -1.49398437 13.61085938 -2 14 C-2.05389087 12.04196493 -2.09274217 10.08351091 -2.125 8.125 C-2.14820312 7.03445312 -2.17140625 5.94390625 -2.1953125 4.8203125 C-2 2 -2 2 0 0 Z " fill="#215B94" transform="translate(110,52)"/>
<path d="M0 0 C1.07948085 3.23844254 0.88218282 3.88554326 0 7 C-0.22390317 9.75317974 -0.41393662 12.49305329 -0.5625 15.25 C-0.60568359 15.99507812 -0.64886719 16.74015625 -0.69335938 17.5078125 C-0.79896725 19.338349 -0.89994201 21.16915176 -1 23 C-1.33 23 -1.66 23 -2 23 C-2.05789006 19.54173658 -2.09355821 16.08359707 -2.125 12.625 C-2.14175781 11.64015625 -2.15851562 10.6553125 -2.17578125 9.640625 C-2.18222656 8.69960938 -2.18867188 7.75859375 -2.1953125 6.7890625 C-2.20578613 5.91975098 -2.21625977 5.05043945 -2.22705078 4.15478516 C-2 2 -2 2 0 0 Z " fill="#B52E42" transform="translate(33,26)"/>
<path d="M0 0 C0 2 0 2 -2.375 4.5625 C-5 7 -5 7 -7 8 C-7 6.35 -7 4.7 -7 3 C-7.99 2.67 -8.98 2.34 -10 2 C-6.38026598 0.68373308 -3.90432869 0 0 0 Z " fill="#AE404E" transform="translate(48,9)"/>
<path d="M0 0 C2.625 -0.1875 2.625 -0.1875 5 0 C3.48328036 4.55015893 -0.16891053 6.50057264 -4 9 C-4.33 8.34 -4.66 7.68 -5 7 C-4.34 7 -3.68 7 -3 7 C-2.87625 6.401875 -2.7525 5.80375 -2.625 5.1875 C-2 3 -2 3 0 0 Z " fill="#355488" transform="translate(76,64)"/>
<path d="M0 0 C0.33 0.66 0.66 1.32 1 2 C-0.50957714 6.07585828 -2.02216494 9.76322276 -5 13 C-5.66 13 -6.32 13 -7 13 C-5.25 8.125 -5.25 8.125 -3 7 C-2.67 6.01 -2.34 5.02 -2 4 C-2.66 3.67 -3.32 3.34 -4 3 C-2.68 2.01 -1.36 1.02 0 0 Z " fill="#644B72" transform="translate(66,54)"/>
<path d="M0 0 C0 0.66 0 1.32 0 2 C2.64 2 5.28 2 8 2 C4.83759418 4.10827055 3.49342531 4.33817465 -0.1875 4.625 C-1.08855469 4.69976562 -1.98960938 4.77453125 -2.91796875 4.8515625 C-3.60503906 4.90054688 -4.29210938 4.94953125 -5 5 C-5 4.01 -5 3.02 -5 2 C-2 0 -2 0 0 0 Z " fill="#4F4B76" transform="translate(51,78)"/>
<path d="M0 0 C0.66 0.33 1.32 0.66 2 1 C1.67 1.99 1.34 2.98 1 4 C0.34 4 -0.32 4 -1 4 C-1.33 4.99 -1.66 5.98 -2 7 C-2.66 7 -3.32 7 -4 7 C-4.33 7.66 -4.66 8.32 -5 9 C-5 8.01 -5 7.02 -5 6 C-4.34 6 -3.68 6 -3 6 C-3 5.34 -3 4.68 -3 4 C-3.66 4 -4.32 4 -5 4 C-5 3.34 -5 2.68 -5 2 C-2.625 0.9375 -2.625 0.9375 0 0 Z " fill="#AB3D53" transform="translate(46,75)"/>
<path d="M0 0 C6.78497588 3.45416954 6.78497588 3.45416954 7.8125 6.0625 C7.874375 6.701875 7.93625 7.34125 8 8 C8.99 9.485 8.99 9.485 10 11 C6.8510285 9.63088196 4.9521513 8.1247864 2.75 5.5 C2.22921875 4.8915625 1.7084375 4.283125 1.171875 3.65625 C0 2 0 2 0 0 Z " fill="#E3AAB0" transform="translate(20,80)"/>
<path d="M0 0 C0 3.77910478 -0.99703962 4.46106101 -3.5 7.1875 C-4.1496875 7.90292969 -4.799375 8.61835937 -5.46875 9.35546875 C-5.9740625 9.89816406 -6.479375 10.44085938 -7 11 C-7.66 10.67 -8.32 10.34 -9 10 C-8.875 8.25 -8.875 8.25 -8 6 C-5.0625 3.875 -5.0625 3.875 -2 2 C-1.34 1.34 -0.68 0.68 0 0 Z " fill="#7E4768" transform="translate(58,67)"/>
<path d="M0 0 C0.33 0.66 0.66 1.32 1 2 C-0.98 4.31 -2.96 6.62 -5 9 C-6.32 8.01 -7.64 7.02 -9 6 C-7.88625 5.566875 -6.7725 5.13375 -5.625 4.6875 C-1.82487666 3.30088881 -1.82487666 3.30088881 0 0 Z " fill="#B8364F" transform="translate(59,63)"/>
<path d="M0 0 C6.95230941 -0.44534366 11.59696035 -0.67289916 17 4 C16.01 4.495 16.01 4.495 15 5 C13.33500811 4.26740357 11.67144818 3.5311519 10.01953125 2.76953125 C6.73026814 1.51617568 3.49468254 1.3065511 0 1 C0 0.67 0 0.34 0 0 Z " fill="#41698C" transform="translate(80,47)"/>
<path d="M0 0 C1.231394 2.46278801 1.07159196 4.2795055 1 7 C-0.98 7.99 -0.98 7.99 -3 9 C-3.66 8.34 -4.32 7.68 -5 7 C-3.35 4.69 -1.7 2.38 0 0 Z " fill="#38628E" transform="translate(81,87)"/>
<path d="M0 0 C2.0625 0.4375 2.0625 0.4375 4 1 C0.267612 4.57011026 -4.0949989 5.10913442 -9 6 C-6.59027489 3.59027489 -4.04587368 2.49053393 -1 1 C-0.67 0.67 -0.34 0.34 0 0 Z " fill="#B6243F" transform="translate(67,77)"/>
<path d="M0 0 C0.33 0 0.66 0 1 0 C1 1.98 1 3.96 1 6 C0.01 6.33 -0.98 6.66 -2 7 C-2.33 7.99 -2.66 8.98 -3 10 C-4 7 -4 7 -3.22265625 5.17578125 C-2.1484375 3.45052083 -1.07421875 1.72526042 0 0 Z " fill="#D68C94" transform="translate(20,26)"/>
<path d="M0 0 C1.98 0.99 1.98 0.99 4 2 C4 2.66 4 3.32 4 4 C3.34 4 2.68 4 2 4 C2 5.98 2 7.96 2 10 C0 8 0 8 -0.1953125 6.0546875 C-0.13020833 4.03645833 -0.06510417 2.01822917 0 0 Z " fill="#C48E93" transform="translate(14,62)"/>
<path d="M0 0 C0.66 0.66 1.32 1.32 2 2 C1.875 4.4375 1.875 4.4375 1 7 C-1.0625 8.8125 -1.0625 8.8125 -3 10 C-3 8.68 -3 7.36 -3 6 C-2.34 5.67 -1.68 5.34 -1 5 C-0.34444881 2.47266765 -0.34444881 2.47266765 0 0 Z " fill="#325F8A" transform="translate(97,80)"/>
<path d="M0 0 C0 0.99 0 1.98 0 3 C-6.625 6 -6.625 6 -10 6 C-2.6 0 -2.6 0 0 0 Z " fill="#D9979C" transform="translate(38,11)"/>
<path d="M0 0 C1 2 1 2 0.375 4 C-1.39265071 6.57112831 -3.07589059 7.07659703 -6 8 C-4.55746343 4.63408134 -2.66735273 2.48952921 0 0 Z " fill="#D38790" transform="translate(27,18)"/>
<path d="M0 0 C0.625 2.0625 0.625 2.0625 1 4 C-1.02045442 3.39816251 -3.02111039 2.72693904 -5 2 C-5.33 1.34 -5.66 0.68 -6 0 C-2.25 -1.125 -2.25 -1.125 0 0 Z " fill="#C22B40" transform="translate(32,86)"/>
<path d="M0 0 C1.98 0.495 1.98 0.495 4 1 C4 1.99 4 2.98 4 4 C2.02 4.99 2.02 4.99 0 6 C-1 3 -1 3 0 0 Z " fill="#7598B6" transform="translate(102,52)"/>
<path d="M0 0 C0.99 0.33 1.98 0.66 3 1 C0.64722731 3.72426311 -1.62496331 4.8141763 -5 6 C-3.35 4.02 -1.7 2.04 0 0 Z " fill="#E8D0D8" transform="translate(78,87)"/>
<path d="M0 0 C0.66 0.33 1.32 0.66 2 1 C1.39816251 3.02045442 0.72693904 5.02111039 0 7 C-0.99 7.495 -0.99 7.495 -2 8 C-1.125 1.125 -1.125 1.125 0 0 Z " fill="#C6DBEA" transform="translate(103,76)"/>
<path d="M0 0 C0.99 0.33 1.98 0.66 3 1 C2.34 2.32 1.68 3.64 1 5 C-0.65 5 -2.3 5 -4 5 C-2.68 3.35 -1.36 1.7 0 0 Z " fill="#3D6386" transform="translate(74,46)"/>
</svg>
